<?xml version="1.0" encoding="UTF-8" standalone="no"?>
<!-- Created with Inkscape (http://www.inkscape.org/) -->
<svg
   xmlns:dc="http://purl.org/dc/elements/1.1/"
   xmlns:cc="http://web.resource.org/cc/"
   xmlns:rdf="http://www.w3.org/1999/02/22-rdf-syntax-ns#"
   xmlns:svg="http://www.w3.org/2000/svg"
   xmlns="http://www.w3.org/2000/svg"
   xmlns:sodipodi="http://inkscape.sourceforge.net/DTD/sodipodi-0.dtd"
   xmlns:inkscape="http://www.inkscape.org/namespaces/inkscape"
   width="800"
   height="800"
   id="svg2"
   sodipodi:version="0.32"
   inkscape:version="0.43"
   version="1.0"
   sodipodi:docbase="C:\temp"
   sodipodi:docname="Art_gallery_problem.svg">
  <defs
     id="defs4" />
  <sodipodi:namedview
     id="base"
     pagecolor="#ffffff"
     bordercolor="#666666"
     borderopacity="1.0"
     inkscape:pageopacity="0.0"
     inkscape:pageshadow="2"
     inkscape:zoom="0.74375"
     inkscape:cx="400"
     inkscape:cy="346.21849"
     inkscape:document-units="px"
     inkscape:current-layer="layer1"
     width="800px"
     height="800px"
     showgrid="true"
     gridspacingx="10px"
     gridspacingy="10px"
     inkscape:object-points="false"
     inkscape:grid-points="true"
     inkscape:grid-bbox="false"
     gridtolerance="10000"
     inkscape:window-width="956"
     inkscape:window-height="746"
     inkscape:window-x="31"
     inkscape:window-y="8"
     showguides="true"
     inkscape:guide-bbox="true" />
  <metadata
     id="metadata7">
    <rdf:RDF>
      <cc:Work
         rdf:about="">
        <dc:format>image/svg+xml</dc:format>
        <dc:type
           rdf:resource="http://purl.org/dc/dcmitype/StillImage" />
      </cc:Work>
    </rdf:RDF>
  </metadata>
  <g
     inkscape:label="Livello 1"
     inkscape:groupmode="layer"
     id="layer1">
    <path
       style="fill:#cfc6c3;fill-rule:evenodd;stroke:none;stroke-width:6;stroke-linecap:butt;stroke-linejoin:miter;stroke-miterlimit:4;stroke-dasharray:none;stroke-opacity:1;fill-opacity:1"
       d="M 32,34 C 32,145.33333 32,256.66667 32,368 C 81.874925,368.16674 132.41677,367.66657 181.875,368.25 C 181.70142,372.81766 182.75868,377.5104 181.6875,382 C 131.79167,382 81.895833,382 32,382 C 32,477.33333 32,572.66667 32,668 C 65.333333,668 98.666667,668 132,668 C 132,701.33333 132,734.66667 132,768 C 194,768 256,768 318,768 C 318,672.66667 318,577.33333 318,482 C 301.45898,481.83268 284.24913,482.3342 268.125,481.75 C 268.29858,477.18234 267.24132,472.4896 268.3125,468 C 284.875,468 301.4375,468 318,468 C 318.16683,434.79183 317.66644,400.91644 318.25,368.125 C 322.81766,368.29858 327.5104,367.24132 332,368.3125 C 332,401.54167 332,434.77083 332,468 C 348.54102,468.16732 365.75087,467.6658 381.875,468.25 C 381.70142,472.81766 382.75868,477.5104 381.6875,482 C 365.125,482 348.5625,482 332,482 C 332,577.33333 332,672.66667 332,768 C 410.66667,768 489.33333,768 568,768 C 568.16732,751.45898 567.6658,734.24913 568.25,718.125 C 572.81766,718.29858 577.5104,717.24132 582,718.3125 C 582,734.875 582,751.4375 582,768 C 644,768 706,768 768,768 C 768,672.66667 768,577.33333 768,482 C 706,482 644,482 582,482 C 581.83268,498.54102 582.3342,515.75087 581.75,531.875 C 577.18234,531.70142 572.4896,532.75868 568,531.6875 C 568,510.45833 568,489.22917 568,468 C 634.66667,468 701.33333,468 768,468 C 768,372.66667 768,277.33333 768,182 C 701.43752,181.87498 634.37497,182.25003 568.125,181.8125 C 568.30366,177.22381 567.23866,172.51044 568.3125,168 C 634.875,168 701.4375,168 768,168 C 768,122.66667 768,77.333333 768,32 C 589.33333,32 410.66667,32 232,32 C 232,77.333333 232,122.66667 232,168 C 298.56248,168.12502 365.62503,167.74997 431.875,168.1875 C 431.69634,172.77619 432.76134,177.48956 431.6875,182 C 360.45833,182 289.22917,182 218,182 C 218,132 218,82 218,32 C 156,32 94,32 32,32 L 32,33 L 32,34 z "
       id="path2964" />
    <path
       style="fill:#20e020;fill-opacity:1;fill-rule:evenodd;stroke:none;stroke-width:1px;stroke-linecap:butt;stroke-linejoin:miter;stroke-opacity:1"
       d="M 350,700 L 550,700 L 550,750 L 350,750 L 350,700 z "
       id="path1337" />
    <path
       style="fill:#e0e0e0;fill-opacity:1;fill-rule:evenodd;stroke:none;stroke-width:1px;stroke-linecap:butt;stroke-linejoin:miter;stroke-opacity:1"
       d="M 250 300 L 192.84375 328.5625 L 200 350 L 200 400 L 200 430 L 250 390 L 250 300 z "
       id="path2946" />
    <path
       style="fill:#2020e0;fill-opacity:1;fill-rule:evenodd;stroke:none;stroke-width:1px;stroke-linecap:butt;stroke-linejoin:miter;stroke-opacity:1"
       d="M 50 400 L 50 510 L 200 400 L 50 400 z M 200 430 L 50 550 L 50 650 L 150 650 L 150 750 L 200 750 L 200 430 z M 250 500 L 300 750 L 300 500 L 250 500 z "
       id="path2798" />
    <path
       style="fill:#e0e020;fill-opacity:1;fill-rule:evenodd;stroke:none;stroke-width:1px;stroke-linecap:butt;stroke-linejoin:miter;stroke-opacity:1"
       d="M 192.84375 328.5625 L 150 350 L 200 350 L 192.84375 328.5625 z "
       id="path2941" />
    <path
       style="fill:#e020e0;fill-opacity:1;fill-rule:evenodd;stroke:none;stroke-width:1px;stroke-linecap:butt;stroke-linejoin:miter;stroke-opacity:1"
       d="M 100 50 L 192.84375 328.5625 L 250 300 L 250 200 L 200 200 L 200 50 L 100 50 z M 250 390 L 200 430 L 200 750 L 300 750 L 250 500 L 250 450 L 250 390 z "
       id="path2821" />
    <path
       style="fill:#2020e0;fill-opacity:1;fill-rule:evenodd;stroke:none;stroke-width:1px;stroke-linecap:butt;stroke-linejoin:miter;stroke-opacity:1"
       d="M 350 500 L 350 620 L 400 500 L 350 500 z M 600 500 L 600 550 L 550 550 L 550 700 L 600 700 C 600 700 600 750 600 750 C 600 750 750 760 750 750 C 750 740 750 500 750 500 L 600 500 z "
       id="path2803" />
    <path
       style="fill:#20e0e0;fill-opacity:1;fill-rule:evenodd;stroke:none;stroke-width:1px;stroke-linecap:butt;stroke-linejoin:miter;stroke-opacity:1"
       d="M 350,350 L 350,390 L 400,450 L 400,500 L 350,620 L 350,700 L 550,700 L 550,550 L 350,350 z "
       id="path2857"
       sodipodi:nodetypes="ccccccccc" />
    <path
       style="fill:#e0e020;fill-opacity:1;fill-rule:evenodd;stroke:none;stroke-width:1px;stroke-linecap:butt;stroke-linejoin:miter;stroke-opacity:1"
       d="M 450,200 L 432.9375,208.53125 L 550,550 L 550,450 L 550,200 L 450,200 z M 300,275 L 250,300 L 250,390 L 300,350 L 350,350 L 300,275 z "
       id="path2868" />
    <path
       style="fill:#e02020;fill-opacity:1;fill-rule:evenodd;stroke:none;stroke-width:1px;stroke-linecap:butt;stroke-linejoin:miter;stroke-opacity:1"
       d="M 250 200 L 250 300 L 300 275 L 250 200 z M 430 200 L 432.9375 208.53125 L 450 200 L 430 200 z M 550 200 L 550 450 L 750 450 L 750 200 L 550 200 z M 300 350 L 250 390 L 250 450 L 300 450 L 300 350 z "
       id="path1909" />
    <path
       style="fill:#e020e0;fill-opacity:1;fill-rule:evenodd;stroke:none;stroke-width:1px;stroke-linecap:butt;stroke-linejoin:miter;stroke-opacity:1"
       d="M 250 200 L 300 275 L 432.9375 208.53125 L 430 200 L 250 200 z "
       id="path2830" />
    <path
       style="fill:#20e020;fill-opacity:1;fill-rule:evenodd;stroke:none;stroke-width:1px;stroke-linecap:butt;stroke-linejoin:miter;stroke-opacity:1"
       d="M 250 50 L 250 150 L 450 150 L 450 200 L 550 200 L 550 150 L 750 150 L 750 50 L 250 50 z M 350 390 L 350 450 L 400 450 L 350 390 z "
       id="path2880" />
    <path
       style="fill:#20e0e0;fill-opacity:1;fill-rule:evenodd;stroke:none;stroke-width:1px;stroke-linecap:butt;stroke-linejoin:miter;stroke-opacity:1"
       d="M 200,400 L 50,510 L 50,550 L 200,430 L 200,400 z "
       id="path2836" />
    <path
       style="fill:#e0e0e0;fill-opacity:1;fill-rule:evenodd;stroke:none;stroke-width:1px;stroke-linecap:butt;stroke-linejoin:miter;stroke-opacity:1"
       d="M 432.9375 208.53125 L 300 275 L 350 350 L 550 550 L 432.9375 208.53125 z "
       id="path2891" />
    <path
       style="fill:none;fill-rule:evenodd;stroke:black;stroke-width:2;stroke-linecap:butt;stroke-linejoin:miter;stroke-opacity:1;stroke-miterlimit:4;stroke-dasharray:4,4;stroke-dashoffset:0"
       d="M 550,150 L 450,200"
       id="path2913" />
    <path
       style="fill:none;fill-rule:evenodd;stroke:black;stroke-width:2;stroke-linecap:butt;stroke-linejoin:miter;stroke-miterlimit:4;stroke-dasharray:4, 4;stroke-dashoffset:0;stroke-opacity:1"
       d="M 550,150 L 200,400"
       id="path2915"
       sodipodi:nodetypes="cc" />
    <path
       style="fill:none;fill-rule:evenodd;stroke:black;stroke-width:2;stroke-linecap:butt;stroke-linejoin:miter;stroke-miterlimit:4;stroke-dasharray:4, 4;stroke-dashoffset:0;stroke-opacity:1"
       d="M 550,150 L 300,350"
       id="path2917"
       sodipodi:nodetypes="cc" />
    <path
       style="fill:none;fill-rule:evenodd;stroke:black;stroke-width:2;stroke-linecap:butt;stroke-linejoin:miter;stroke-miterlimit:4;stroke-dasharray:4, 4;stroke-dashoffset:0;stroke-opacity:1"
       d="M 550,150 L 400,500"
       id="path2919"
       sodipodi:nodetypes="cc" />
    <path
       style="fill:none;fill-rule:evenodd;stroke:black;stroke-width:2;stroke-linecap:butt;stroke-linejoin:miter;stroke-miterlimit:4;stroke-dasharray:4, 4;stroke-dashoffset:0;stroke-opacity:1"
       d="M 550,150 L 550,450"
       id="path2921"
       sodipodi:nodetypes="cc" />
    <path
       style="fill:none;fill-rule:evenodd;stroke:black;stroke-width:2;stroke-linecap:butt;stroke-linejoin:miter;stroke-miterlimit:4;stroke-dasharray:4, 4;stroke-dashoffset:0;stroke-opacity:1"
       d="M 200,200 L 550,200"
       id="path2923"
       sodipodi:nodetypes="cc" />
    <path
       style="fill:none;fill-rule:evenodd;stroke:black;stroke-width:2;stroke-linecap:butt;stroke-linejoin:miter;stroke-miterlimit:4;stroke-dasharray:4, 4;stroke-dashoffset:0;stroke-opacity:1"
       d="M 550,550 L 200,200"
       id="path2925"
       sodipodi:nodetypes="cc" />
    <path
       style="fill:none;fill-rule:evenodd;stroke:black;stroke-width:2;stroke-linecap:butt;stroke-linejoin:miter;stroke-miterlimit:4;stroke-dasharray:4, 4;stroke-dashoffset:0;stroke-opacity:1"
       d="M 200,200 L 250,500"
       id="path2927"
       sodipodi:nodetypes="cc" />
    <path
       style="fill:none;fill-rule:evenodd;stroke:black;stroke-width:2;stroke-linecap:butt;stroke-linejoin:miter;stroke-miterlimit:4;stroke-dasharray:4, 4;stroke-dashoffset:0;stroke-opacity:1"
       d="M 200,200 L 200,350"
       id="path2929"
       sodipodi:nodetypes="cc" />
    <path
       style="fill:none;fill-rule:evenodd;stroke:black;stroke-width:2;stroke-linecap:butt;stroke-linejoin:miter;stroke-miterlimit:4;stroke-dasharray:4, 4;stroke-dashoffset:0;stroke-opacity:1"
       d="M 250,500 L 250,200"
       id="path2931"
       sodipodi:nodetypes="cc" />
    <path
       style="fill:none;fill-rule:evenodd;stroke:black;stroke-width:2;stroke-linecap:butt;stroke-linejoin:miter;stroke-miterlimit:4;stroke-dasharray:4, 4;stroke-dashoffset:0;stroke-opacity:1"
       d="M 550,550 L 600,700"
       id="path2933"
       sodipodi:nodetypes="cc" />
    <path
       style="fill:none;fill-rule:evenodd;stroke:black;stroke-width:2;stroke-linecap:butt;stroke-linejoin:miter;stroke-miterlimit:4;stroke-dasharray:4, 4;stroke-dashoffset:0;stroke-opacity:1"
       d="M 350,350 L 600,700"
       id="path2935"
       sodipodi:nodetypes="cc" />
    <path
       style="fill:none;fill-rule:evenodd;stroke:black;stroke-width:2;stroke-linecap:butt;stroke-linejoin:miter;stroke-miterlimit:4;stroke-dasharray:4, 4;stroke-dashoffset:0;stroke-opacity:1"
       d="M 600,700 L 400,450"
       id="path2937"
       sodipodi:nodetypes="cc" />
    <path
       style="fill:none;fill-rule:evenodd;stroke:black;stroke-width:2;stroke-linecap:butt;stroke-linejoin:miter;stroke-miterlimit:4;stroke-dasharray:4, 4;stroke-dashoffset:0;stroke-opacity:1"
       d="M 200,350 L 250,500"
       id="path2944"
       sodipodi:nodetypes="cc" />
    <path
       style="fill:#e02020;fill-opacity:1;fill-rule:evenodd;stroke:none;stroke-width:1px;stroke-linecap:butt;stroke-linejoin:miter;stroke-opacity:1"
       d="M 50 50 L 50 350 L 150 350 L 192.84375 328.5625 L 100 50 L 50 50 z "
       id="path2948" />
    <path
       style="fill:none;fill-rule:evenodd;stroke:black;stroke-width:6;stroke-linecap:butt;stroke-linejoin:miter;stroke-opacity:1;stroke-miterlimit:4;stroke-dasharray:none"
       d="M 50,50 L 200,50 L 200,200 L 250,200 L 450,200 L 450,150 L 350,150 L 250,150 L 250,50 L 750,50 L 750,150 L 550,150 L 550,200 L 750,200 L 750,450 L 550,450 L 550,550 L 600,550 L 600,500 L 750,500 L 750,750 L 600,750 L 600,700 L 550,700 L 550,750 L 350,750 L 350,500 L 400,500 L 400,450 L 350,450 L 350,350 L 300,350 L 300,450 L 250,450 L 250,500 L 300,500 L 300,750 L 150,750 L 150,650 L 50,650 L 50,400 L 200,400 L 200,350 L 50,350 L 50,50 z "
       id="path2794"
       sodipodi:nodetypes="ccccccccccccccccccccccccccccccccccccccccccccc" />
    <path
       sodipodi:type="arc"
       style="fill:red;fill-opacity:1;stroke:black;stroke-width:4;stroke-linecap:round;stroke-linejoin:round;stroke-miterlimit:4;stroke-dasharray:none;stroke-dashoffset:0;stroke-opacity:1"
       id="path2905"
       sodipodi:cx="200"
       sodipodi:cy="200"
       sodipodi:rx="20"
       sodipodi:ry="20"
       d="M 220 200 A 20 20 0 1 1  180,200 A 20 20 0 1 1  220 200 z" />
    <path
       sodipodi:type="arc"
       style="fill:lime;fill-opacity:1;stroke:black;stroke-width:4;stroke-linecap:round;stroke-linejoin:round;stroke-miterlimit:4;stroke-dasharray:none;stroke-dashoffset:0;stroke-opacity:1"
       id="path2911"
       sodipodi:cx="200"
       sodipodi:cy="200"
       sodipodi:rx="20"
       sodipodi:ry="20"
       d="M 220 200 A 20 20 0 1 1  180,200 A 20 20 0 1 1  220 200 z"
       transform="translate(350,-50)" />
    <path
       sodipodi:type="arc"
       style="fill:blue;fill-opacity:1;stroke:black;stroke-width:4;stroke-linecap:round;stroke-linejoin:round;stroke-miterlimit:4;stroke-dasharray:none;stroke-dashoffset:0;stroke-opacity:1"
       id="path2907"
       sodipodi:cx="200"
       sodipodi:cy="200"
       sodipodi:rx="20"
       sodipodi:ry="20"
       d="M 220 200 A 20 20 0 1 1  180,200 A 20 20 0 1 1  220 200 z"
       transform="translate(50,300)" />
    <path
       style="fill:none;fill-rule:evenodd;stroke:#000000;stroke-width:2;stroke-linecap:butt;stroke-linejoin:miter;stroke-miterlimit:4;stroke-dasharray:4, 4;stroke-dashoffset:0;stroke-opacity:1"
       d="M 350,700 L 600,700"
       id="path2212"
       sodipodi:nodetypes="cc" />
    <path
       sodipodi:type="arc"
       style="fill:blue;fill-opacity:1;stroke:black;stroke-width:4;stroke-linecap:round;stroke-linejoin:round;stroke-miterlimit:4;stroke-dasharray:none;stroke-dashoffset:0;stroke-opacity:1"
       id="path2909"
       sodipodi:cx="200"
       sodipodi:cy="200"
       sodipodi:rx="20"
       sodipodi:ry="20"
       d="M 220 200 A 20 20 0 1 1  180,200 A 20 20 0 1 1  220 200 z"
       transform="translate(400,500)" />
  </g>
</svg>
